#Comment line ignore any data following # character 
#Hierarchical Translation and Rotation (.htr) file 
[Header]	
#Header keywords are followed by a single value 
FileType HTR		#Single word string
DataType HTRS		#Translation followed by rotation and scale data
FileVersion 1		#integer
NumSegments 64		#integer
NumFrames 3		#integer
DataFrameRate 30		#integer, data frame rate in this file
EulerRotationOrder ZYX
CalibrationUnits mm
RotationUnits Degrees
GlobalAxisofGravity Y
BoneLengthAxis Y
ScaleFactor 1.00
[SegmentNames&Hierarchy]
#CHILD	PARENT
Pinger_Root GLOBAL
Pelvis Pinger_Root
L_Hip Pelvis
R_Hip Pelvis
Rear_Leg01 Pelvis
Spine1 Pelvis
L_Leg01 L_Hip
L_Leg02 L_Leg01
L_Leg03 L_Leg02
L_Foot L_Leg03
L_Toe1_01 L_Foot
L_Toe2_01 L_Foot
L_Toe3_01 L_Foot
planeAlignerLeft L_Foot
L_Toe1_02 L_Toe1_01
L_Toe1_03 L_Toe1_02
L_Toe2_02 L_Toe2_01
L_Toe2_03 L_Toe2_02
L_Toe3_02 L_Toe3_01
L_Toe3_03 L_Toe3_02
planeLockWeightLeft planeAlignerLeft
R_Leg01 R_Hip
R_Leg02 R_Leg01
R_Leg03 R_Leg02
R_Foot R_Leg03
planeAlignerRight R_Foot
R_Toe1_01 R_Foot
R_Toe2_01 R_Foot
R_Toe3_01 R_Foot
planeLockWeightRight planeAlignerRight
R_Toe1_02 R_Toe1_01
R_Toe1_03 R_Toe1_02
R_Toe2_02 R_Toe2_01
R_Toe2_03 R_Toe2_02
R_Toe3_02 R_Toe3_01
R_Toe3_03 R_Toe3_02
Rear_Leg02 Rear_Leg01
Rear_Leg03 Rear_Leg02
Rear_Leg04 Rear_Leg03
Rear_Foot Rear_Leg04
planeAlignerCenter Rear_Foot
Rear_Toe1_01 Rear_Foot
Rear_Toe2_01 Rear_Foot
Rear_Toe3_01 Rear_Foot
planeLockWeightCenter planeAlignerCenter
Rear_Toe1_02 Rear_Toe1_01
Rear_Toe1_03 Rear_Toe1_02
Rear_Toe2_02 Rear_Toe2_01
Rear_Toe2_03 Rear_Toe2_02
Rear_Toe3_02 Rear_Toe3_01
Rear_Toe3_03 Rear_Toe3_02
Back_Bone Spine1
Head Spine1
Motor_Bone Back_Bone
Ping_Mechanism Back_Bone
BN_LookIK Head
bottomMouth Head
L_Mouth01 Head
L_mouthFront Head
mouthGun Head
R_Mouth01 Head
R_mouthFront Head
TopMouth Head
weapon_bone Head
[BasePosition]
#SegmentName Tx, Ty, Tz, Rx, Ry, Rz, BoneLength
Pinger_Root 0.000000 0.000000 0.000000 -90.000000 0.000000 0.000000 10.000000 
Pelvis 0.000000 0.000000 0.000000 0.000000 0.000000 0.000000 10.000000 
L_Hip 0.000000 0.000000 0.000000 0.000000 0.000000 0.000000 10.000000 
R_Hip 0.000000 0.000000 0.000000 0.000000 0.000000 0.000000 10.000000 
Rear_Leg01 0.000000 0.000000 0.000000 0.000000 0.000000 0.000000 10.000000 
Spine1 0.000000 0.000000 0.000000 0.000000 0.000000 0.000000 10.000000 
L_Leg01 0.000000 0.000000 0.000000 0.000000 0.000000 0.000000 10.000000 
L_Leg02 0.000000 0.000000 0.000000 0.000000 0.000000 0.000000 10.000000 
L_Leg03 0.000000 0.000000 0.000000 0.000000 0.000000 0.000000 10.000000 
L_Foot 0.000000 0.000000 0.000000 0.000000 0.000000 0.000000 10.000000 
L_Toe1_01 0.000000 0.000000 0.000000 0.000000 0.000000 0.000000 10.000000 
L_Toe2_01 0.000000 0.000000 0.000000 0.000000 0.000000 0.000000 10.000000 
L_Toe3_01 0.000000 0.000000 0.000000 0.000000 0.000000 0.000000 10.000000 
planeAlignerLeft 0.000000 0.000000 0.000000 0.000000 0.000000 0.000000 10.000000 
L_Toe1_02 0.000000 0.000000 0.000000 0.000000 0.000000 0.000000 10.000000 
L_Toe1_03 0.000000 0.000000 0.000000 0.000000 0.000000 0.000000 10.000000 
L_Toe2_02 0.000000 0.000000 0.000000 0.000000 0.000000 0.000000 10.000000 
L_Toe2_03 0.000000 0.000000 0.000000 0.000000 0.000000 0.000000 10.000000 
L_Toe3_02 0.000000 0.000000 0.000000 0.000000 0.000000 0.000000 10.000000 
L_Toe3_03 0.000000 0.000000 0.000000 0.000000 0.000000 0.000000 10.000000 
planeLockWeightLeft 0.000000 0.000000 0.000000 0.000000 0.000000 0.000000 10.000000 
R_Leg01 0.000000 0.000000 0.000000 0.000000 0.000000 0.000000 10.000000 
R_Leg02 0.000000 0.000000 0.000000 0.000000 0.000000 0.000000 10.000000 
R_Leg03 0.000000 0.000000 0.000000 0.000000 0.000000 0.000000 10.000000 
R_Foot 0.000000 0.000000 0.000000 0.000000 0.000000 0.000000 10.000000 
planeAlignerRight 0.000000 0.000000 0.000000 0.000000 0.000000 0.000000 10.000000 
R_Toe1_01 0.000000 0.000000 0.000000 0.000000 0.000000 0.000000 10.000000 
R_Toe2_01 0.000000 0.000000 0.000000 0.000000 0.000000 0.000000 10.000000 
R_Toe3_01 0.000000 0.000000 0.000000 0.000000 0.000000 0.000000 10.000000 
planeLockWeightRight 0.000000 0.000000 0.000000 0.000000 0.000000 0.000000 10.000000 
R_Toe1_02 0.000000 0.000000 0.000000 0.000000 0.000000 0.000000 10.000000 
R_Toe1_03 0.000000 0.000000 0.000000 0.000000 0.000000 0.000000 10.000000 
R_Toe2_02 0.000000 0.000000 0.000000 0.000000 0.000000 0.000000 10.000000 
R_Toe2_03 0.000000 0.000000 0.000000 0.000000 0.000000 0.000000 10.000000 
R_Toe3_02 0.000000 0.000000 0.000000 0.000000 0.000000 0.000000 10.000000 
R_Toe3_03 0.000000 0.000000 0.000000 0.000000 0.000000 0.000000 10.000000 
Rear_Leg02 0.000000 0.000000 0.000000 0.000000 0.000000 0.000000 10.000000 
Rear_Leg03 0.000000 0.000000 0.000000 0.000000 0.000000 0.000000 10.000000 
Rear_Leg04 0.000000 0.000000 0.000000 0.000000 0.000000 0.000000 10.000000 
Rear_Foot 0.000000 0.000000 0.000000 0.000000 0.000000 0.000000 10.000000 
planeAlignerCenter 0.000000 0.000000 0.000000 0.000000 0.000000 0.000000 10.000000 
Rear_Toe1_01 0.000000 0.000000 0.000000 0.000000 0.000000 0.000000 10.000000 
Rear_Toe2_01 0.000000 0.000000 0.000000 0.000000 0.000000 0.000000 10.000000 
Rear_Toe3_01 0.000000 0.000000 0.000000 0.000000 0.000000 0.000000 10.000000 
planeLockWeightCenter 0.000000 0.000000 0.000000 0.000000 0.000000 0.000000 10.000000 
Rear_Toe1_02 0.000000 0.000000 0.000000 0.000000 0.000000 0.000000 10.000000 
Rear_Toe1_03 0.000000 0.000000 0.000000 0.000000 0.000000 0.000000 10.000000 
Rear_Toe2_02 0.000000 0.000000 0.000000 0.000000 0.000000 0.000000 10.000000 
Rear_Toe2_03 0.000000 0.000000 0.000000 0.000000 0.000000 0.000000 10.000000 
Rear_Toe3_02 0.000000 0.000000 0.000000 0.000000 0.000000 0.000000 10.000000 
Rear_Toe3_03 0.000000 0.000000 0.000000 0.000000 0.000000 0.000000 10.000000 
Back_Bone 0.000000 0.000000 0.000000 0.000000 0.000000 0.000000 10.000000 
Head 0.000000 0.000000 0.000000 0.000000 0.000000 0.000000 10.000000 
Motor_Bone 0.000000 0.000000 0.000000 0.000000 0.000000 0.000000 10.000000 
Ping_Mechanism 0.000000 0.000000 0.000000 0.000000 0.000000 0.000000 10.000000 
BN_LookIK 0.000000 0.000000 0.000000 0.000000 0.000000 0.000000 10.000000 
bottomMouth 0.000000 0.000000 0.000000 0.000000 0.000000 0.000000 10.000000 
L_Mouth01 0.000000 0.000000 0.000000 0.000000 0.000000 0.000000 10.000000 
L_mouthFront 0.000000 0.000000 0.000000 0.000000 0.000000 0.000000 10.000000 
mouthGun 0.000000 0.000000 0.000000 0.000000 0.000000 0.000000 10.000000 
R_Mouth01 0.000000 0.000000 0.000000 0.000000 0.000000 0.000000 10.000000 
R_mouthFront 0.000000 0.000000 0.000000 0.000000 0.000000 0.000000 10.000000 
TopMouth 0.000000 0.000000 0.000000 0.000000 0.000000 0.000000 10.000000 
weapon_bone 0.000000 0.000000 0.000000 0.000000 0.000000 0.000000 10.000000 
#Beginning of Data. Separated by tabs
#Fr	Tx	Ty	Tz	Rx	Ry	Rz	SF
[Pinger_Root]
31 0.000000 -3888.887939 0.000000 -0.000075 -0.000000 -0.000020 3888.887939
32 0.000000 -4018.517578 0.000000 -0.000075 -0.000000 -0.000020 4018.517578
33 0.000000 -4148.146973 0.000000 -0.000075 -0.000000 -0.000020 4148.146973
[Pelvis]
31 224.177780 -15.197291 5075.512207 -107.552940 -69.483696 84.922226 5080.483398
32 282.665161 -13.379111 5107.409180 -105.627220 -70.343201 82.852470 5115.242188
33 335.792633 -8.499192 5137.317871 -103.700554 -71.554413 80.975899 5148.287109
[L_Hip]
31 5.766392 125.831482 872.656799 -178.250168 -81.786369 87.376007 881.701050
32 5.766392 125.831482 872.656799 -178.250168 -81.786369 87.376007 881.701050
33 5.766392 125.831482 872.656799 -178.250168 -81.786369 87.376007 881.701050
[R_Hip]
31 5.765438 125.836372 -872.654907 -1.748770 81.786041 87.376961 881.699829
32 5.765438 125.836372 -872.654907 -1.748770 81.786041 87.376961 881.699829
33 5.765438 125.836372 -872.654907 -1.748770 81.786041 87.376961 881.699829
[Rear_Leg01]
31 -192.298416 -925.602966 -0.001907 156.070023 -7.144344 153.794495 945.367432
32 -192.298416 -925.602966 -0.001907 155.879700 -7.627190 153.133820 945.367432
33 -192.298416 -925.602966 -0.001907 155.864288 -7.907240 152.982849 945.367432
[Spine1]
31 290.604584 5.007505 0.000477 20.415176 -1.663580 -0.763690 290.647736
32 290.604584 5.007505 0.000477 20.136648 -2.702032 0.248814 290.647736
33 290.604584 5.007505 0.000477 19.839540 -3.735216 1.267223 290.647736
[L_Leg01]
31 761.932007 -0.002384 -0.069261 -1.037879 -39.878860 4.735677 761.932068
32 761.932007 -0.002384 -0.069261 2.549149 -38.357494 -1.241128 761.932068
33 761.932007 -0.002384 -0.069261 9.249312 -34.811588 -9.061193 761.932068
[L_Leg02]
31 1441.140503 -0.000954 -0.000715 2.423576 -0.609012 -141.876556 1441.140503
32 1441.140503 -0.000954 -0.000715 2.845443 -0.577008 -142.659012 1441.140503
33 1441.140503 -0.000954 -0.000715 3.802194 -0.542029 -147.241226 1441.140503
[L_Leg03]
31 1686.963989 -0.000715 -0.000954 0.015697 -0.005732 105.950653 1686.963989
32 1686.963989 -0.000715 -0.000954 0.002314 -0.000392 109.221886 1686.963989
33 1686.963989 -0.000715 -0.000954 -0.011397 0.002362 113.420799 1686.963989
[L_Foot]
31 3041.570068 -30.715107 11.297464 -4.449298 14.995959 86.003487 3041.746094
32 3041.570068 -30.715107 11.297464 -4.787475 14.470830 89.518158 3041.746094
33 3041.570068 -30.715107 11.297464 -7.960148 13.429475 92.643234 3041.746094
[L_Toe1_01]
31 -188.216690 -224.732346 -21.137953 88.161049 -0.407038 -126.662598 293.899567
32 -188.216690 -224.732346 -21.137953 88.253105 -0.727090 -130.470245 293.899567
33 -188.216690 -224.732346 -21.137953 88.398781 -1.110687 -134.845734 293.899567
[L_Toe2_01]
31 200.746536 -219.926590 148.838394 -74.803802 -9.627950 -60.054234 332.896027
32 200.746536 -219.926590 148.838394 -74.303085 -8.354426 -63.969742 332.896027
33 200.746536 -219.926590 148.838394 -73.681808 -6.529025 -69.436028 332.896027
[L_Toe3_01]
31 188.832520 -219.859131 -191.078659 -109.595390 11.795130 -61.879971 347.140900
32 188.832520 -219.859131 -191.078659 -110.146744 10.218309 -65.598938 347.140900
33 188.832520 -219.859131 -191.078659 -110.859558 7.931144 -70.852440 347.140900
[planeAlignerLeft]
31 5.398162 -816.330261 7.190385 0.000000 -90.000000 -90.001900 816.379761
32 22.227768 -814.434570 7.742153 0.000000 -90.000000 -90.001900 814.774597
33 35.171612 -808.088989 7.221990 0.000000 -90.000000 -90.001900 808.886292
[L_Toe1_02]
31 413.761139 0.000477 0.000000 0.001407 -23.072226 0.001407 413.761139
32 413.761139 0.000477 0.000000 0.001418 -21.707388 0.001418 413.761139
33 413.761139 0.000477 0.000000 0.001430 -20.342350 0.001430 413.761139
[L_Toe1_03]
31 464.317322 0.000358 -0.000089 0.011396 78.178131 0.011396 464.317322
32 464.317322 0.000358 -0.000089 0.021601 83.763641 0.021601 464.317322
33 464.317322 0.000358 -0.000089 0.206593 89.348686 0.206593 464.317322
[L_Toe2_02]
31 342.235809 -0.000477 0.000238 0.001184 -74.555931 0.001184 342.235809
32 342.235809 -0.000477 0.000238 0.001182 -76.426025 0.001182 342.235809
33 342.235809 -0.000477 0.000238 0.001180 -77.652336 0.001180 342.235809
[L_Toe2_03]
31 420.210846 -0.000715 0.000000 -179.956268 88.551659 -179.952774 420.210846
32 420.210846 -0.000715 0.000000 -179.993118 82.363831 -179.989624 420.210846
33 420.210846 -0.000715 0.000000 -179.996475 77.517067 -179.992966 420.210846
[L_Toe3_02]
31 329.270111 0.000954 0.000000 0.001180 -78.454506 0.001180 329.270111
32 329.270111 0.000954 0.000000 0.001178 -80.137375 0.001178 329.270111
33 329.270111 0.000954 0.000000 0.001177 -81.279579 0.001177 329.270111
[L_Toe3_03]
31 439.137451 -0.001907 0.000954 -179.986053 85.806839 -179.982529 439.137451
32 439.137451 -0.001907 0.000954 -179.995193 79.947968 -179.991684 439.137451
33 439.137451 -0.001907 0.000954 -179.997269 75.320351 -179.993744 439.137451
[planeLockWeightLeft]
31 0.000000 0.098206 0.076065 -0.011826 -0.004376 0.005620 0.124218
32 0.000000 0.098213 0.076065 -0.011826 -0.004376 0.005620 0.124224
33 0.000000 0.098221 0.076065 -0.011826 -0.004376 0.005620 0.124231
[R_Leg01]
31 761.455627 -0.001907 -0.000358 86.118309 -27.921242 84.332008 761.455688
32 761.455627 -0.001907 -0.000358 86.782043 -27.552044 84.482483 761.455688
33 761.455627 -0.001907 -0.000358 87.726845 -27.583986 84.488350 761.455688
[R_Leg02]
31 1441.140625 0.000000 -0.000238 0.206908 0.021918 -87.276520 1441.140625
32 1441.140625 0.000000 -0.000238 0.210585 0.024503 -86.826332 1441.140625
33 1441.140625 0.000000 -0.000238 0.210471 0.025484 -87.359741 1441.140625
[R_Leg03]
31 1686.963989 0.000954 0.001431 -0.038817 0.010573 100.438644 1686.963989
32 1686.963989 0.000954 0.001431 -0.036234 0.009656 101.047882 1686.963989
33 1686.963989 0.000954 0.001431 -0.033662 0.008711 101.657127 1686.963989
[R_Foot]
31 3041.560059 -30.531288 -11.204481 10.144278 -16.718737 66.146416 3041.734131
32 3041.560059 -30.531288 -11.204481 9.121887 -15.710974 64.788422 3041.734131
33 3041.560059 -30.531288 -11.204481 8.210064 -14.602748 63.801090 3041.734131
[planeAlignerRight]
31 -38.200218 -573.040527 27.971809 0.000000 -89.960434 -90.005180 574.993164
32 -13.365820 -577.043579 26.118177 0.000000 -89.960434 -90.005180 577.788940
33 11.468575 -581.046692 24.264544 0.000000 -89.960434 -90.005180 581.666199
[R_Toe1_01]
31 -188.383347 -224.864899 21.052242 90.722466 0.561701 -166.975708 294.101532
32 -188.383347 -224.864899 21.052242 90.710770 0.676108 -167.686981 294.101532
33 -188.383347 -224.864899 21.052242 90.697632 0.790355 -168.398254 294.101532
[R_Toe2_01]
31 200.637817 -220.002121 -148.787384 -100.879578 12.448276 -39.991085 332.857574
32 200.637817 -220.002121 -148.787384 -100.987358 12.019043 -40.789963 332.857574
33 200.637817 -220.002121 -148.787384 -101.088844 11.588356 -41.586811 332.857574
[R_Toe3_01]
31 188.606735 -220.092957 191.126343 -74.572937 -18.998890 -43.260143 347.192566
32 188.606735 -220.092957 191.126343 -74.572342 -18.232496 -43.595055 347.192566
33 188.606735 -220.092957 191.126343 -74.498817 -17.386721 -44.320278 347.192566
[planeLockWeightRight]
31 999.999451 -0.000863 0.076072 -0.011823 -0.004379 -0.000027 999.999451
32 999.999451 -0.000852 0.076068 -0.011823 -0.004379 -0.000027 999.999451
33 999.999512 -0.000842 0.076065 -0.011823 -0.004379 -0.000027 999.999512
[R_Toe1_02]
31 413.762085 0.000477 -0.000119 0.001410 -22.724047 0.001410 413.762085
32 413.762085 0.000477 -0.000119 0.001416 -21.997307 0.001416 413.762085
33 413.762085 0.000477 -0.000119 0.001422 -21.270540 0.001422 413.762085
[R_Toe1_03]
31 464.317810 0.000000 0.001088 0.013185 79.786720 0.013185 464.317810
32 464.317810 0.000000 0.001088 0.004140 83.152405 0.005892 464.317810
33 464.317810 0.000000 0.001088 -0.020666 86.517830 -0.017167 464.317810
[R_Toe2_02]
31 342.234741 -0.000954 0.000238 -0.002333 -79.261314 -0.002333 342.234741
32 342.234741 -0.000954 0.000238 -0.002335 -78.539978 -0.002335 342.234741
33 342.234741 -0.000954 0.000238 -0.002336 -77.818466 -0.002336 342.234741
[R_Toe2_03]
31 420.210846 0.000715 -0.000268 -179.995178 68.291534 -179.998734 420.210846
32 420.210846 0.000715 -0.000268 -179.994522 72.102524 -179.998077 420.210846
33 420.210846 0.000715 -0.000268 -179.993546 75.917717 -179.997070 420.210846
[R_Toe3_02]
31 329.270355 -0.000477 -0.000954 0.001176 -82.418526 0.001176 329.270355
32 329.270355 -0.000477 -0.000954 0.001177 -81.743431 0.001177 329.270355
33 329.270355 -0.000477 -0.000954 0.001177 -81.068298 0.001177 329.270355
[R_Toe3_03]
31 439.137939 0.000238 0.001431 -179.998535 69.569237 -179.994980 439.137939
32 439.137939 0.000238 0.001431 -179.997910 72.886131 -179.994370 439.137939
33 439.137939 0.000238 0.001431 -179.996979 76.205757 -179.993454 439.137939
[Rear_Leg02]
31 1162.777710 -0.029802 0.005960 -5.148957 9.470226 -126.498878 1162.777710
32 1162.777710 -0.029802 0.005960 -4.585454 9.144153 -124.479431 1162.777710
33 1162.777710 -0.029802 0.005960 -4.034621 8.798822 -122.465851 1162.777710
[Rear_Leg03]
31 607.192505 -0.013351 -0.073195 0.010380 -0.005331 70.724693 607.192505
32 607.192505 -0.013351 -0.073195 0.010406 -0.005282 70.183678 607.192505
33 607.192505 -0.013351 -0.073195 0.010430 -0.005233 69.642647 607.192505
[Rear_Leg04]
31 995.874512 -0.020504 -0.011921 -0.040966 -0.017100 72.049301 995.874573
32 995.874512 -0.020504 -0.011921 -0.040765 -0.017574 70.718796 995.874573
33 995.874512 -0.020504 -0.011921 -0.040552 -0.018044 69.388466 995.874573
[Rear_Foot]
31 3096.176270 -0.067472 -0.041425 79.015770 79.052582 -123.977501 3096.176270
32 3096.176270 -0.067472 -0.041425 83.725456 79.735748 -120.875977 3096.176270
33 3096.176270 -0.067472 -0.041425 88.965294 80.366806 -117.242340 3096.176270
[planeAlignerCenter]
31 1.037350 62.643700 -768.353882 0.000009 0.000003 -179.999985 770.903992
32 1.037750 66.652092 -754.628113 0.000009 0.000003 -179.999985 757.566650
33 1.038151 70.660461 -740.902405 0.000009 0.000003 -179.999985 744.265015
[Rear_Toe1_01]
31 0.653352 83.966492 -371.173737 0.059161 25.932013 90.028252 380.553192
32 0.653352 83.966492 -371.173737 0.058823 25.084644 90.028107 380.553192
33 0.653352 83.966492 -371.173737 0.058490 24.237278 90.027977 380.553192
[Rear_Toe2_01]
31 178.200760 -294.826019 -362.060547 0.881455 51.156979 -70.173935 499.765686
32 178.200760 -294.826019 -362.060547 0.918651 50.282379 -70.069542 499.765686
33 178.200760 -294.826019 -362.060547 0.952737 49.407722 -69.967896 499.765686
[Rear_Toe3_01]
31 -153.359680 -308.780914 -362.060852 -1.122280 51.149433 -112.272339 499.952881
32 -153.359680 -308.780914 -362.060852 -1.163422 50.278339 -112.386719 499.952881
33 -153.359680 -308.780914 -362.060852 -1.201159 49.407154 -112.498131 499.952881
[planeLockWeightCenter]
31 1000.000122 0.000074 0.076243 -0.011814 -0.004373 -0.000015 1000.000122
32 1000.000122 0.000091 0.076243 -0.011814 -0.004373 -0.000015 1000.000122
33 1000.000122 0.000107 0.076243 -0.011814 -0.004373 -0.000015 1000.000122
[Rear_Toe1_02]
31 379.707825 0.194073 0.000477 -0.000767 -33.624729 0.000838 379.707855
32 379.707825 0.194073 0.000477 -0.000767 -33.624729 0.000838 379.707855
33 379.707825 0.194073 0.000477 -0.000767 -33.624729 0.000838 379.707855
[Rear_Toe1_03]
31 500.129700 0.165701 0.000119 -0.000356 69.776054 0.001775 500.129761
32 500.129700 0.165701 0.000119 0.002047 70.189018 0.003467 500.129761
33 500.129700 0.165701 0.000119 0.004536 70.601929 0.005246 500.129761
[Rear_Toe2_02]
31 340.494507 0.000238 -0.000954 0.001177 -81.946602 0.001177 340.494507
32 340.494507 0.000238 -0.000954 0.001176 -82.863449 0.001176 340.494507
33 340.494507 0.000238 -0.000954 0.001175 -83.779877 0.001175 340.494507
[Rear_Toe2_03]
31 433.103577 0.000000 0.000238 179.928299 88.121735 179.928299 433.103546
32 433.103577 0.000000 0.000238 179.965118 86.141457 179.965118 433.103546
33 433.103577 0.000000 0.000238 179.976944 84.163666 179.976944 433.103546
[Rear_Toe3_02]
31 340.494141 -0.000358 -0.000477 0.001177 -81.856468 0.001177 340.494171
32 340.494141 -0.000358 -0.000477 0.001176 -82.771896 0.001176 340.494171
33 340.494141 -0.000358 -0.000477 0.001175 -83.686920 0.001175 340.494171
[Rear_Toe3_03]
31 433.103577 0.001431 -0.000238 -179.961990 88.341766 -179.958496 433.103546
32 433.103577 0.001431 -0.000238 -179.983582 86.371506 -179.980087 433.103546
33 433.103577 0.001431 -0.000238 -179.989975 84.403748 -179.986481 433.103546
[Back_Bone]
31 1312.175781 -701.934692 0.000954 2.870127 0.499462 -84.636963 1488.125488
32 1312.175781 -701.934692 0.000954 2.883559 1.259011 -84.453972 1488.125488
33 1312.175781 -701.934692 0.000954 2.899423 2.018476 -84.270721 1488.125488
[Head]
31 1406.159424 809.709290 0.001431 2.193821 -3.125552 21.438002 1622.625488
32 1406.159424 809.709290 0.001431 2.513042 -3.069675 20.970245 1622.625488
33 1406.159424 809.709290 0.001431 2.660831 -2.837055 20.604206 1622.625488
[Motor_Bone]
31 1158.364380 -417.834747 0.000477 -1.440882 0.000167 -105.983208 1231.419434
32 1158.364380 -417.834747 0.000477 -1.029635 1.419330 -104.575363 1231.419434
33 1158.364380 -417.834747 0.000477 -0.583231 2.827924 -103.156067 1231.419434
[Ping_Mechanism]
31 1315.468018 -458.151550 10.199697 0.000103 -0.000053 82.120995 1393.005127
32 1309.161255 -458.097137 13.363229 0.000103 -0.000053 82.120995 1387.059814
33 1302.854614 -458.042694 16.526739 0.000103 -0.000053 82.120995 1381.125122
[BN_LookIK]
31 193.241119 1380.371704 -0.002861 0.000000 89.965736 -31.038179 1393.832153
32 193.241119 1380.371704 -0.002861 0.000000 89.965736 -31.038179 1393.832153
33 193.241119 1380.371704 -0.002861 0.000000 89.965736 -31.038179 1393.832153
[bottomMouth]
31 -435.092926 615.759399 -0.000954 -0.000022 0.000016 73.527184 753.966492
32 -435.092926 615.759399 -0.000954 -0.000022 0.000016 73.527184 753.966492
33 -435.092926 615.759399 -0.000954 -0.000022 0.000016 73.527184 753.966492
[L_Mouth01]
31 554.440979 7.658243 838.222046 150.204178 23.759130 109.605339 1005.027161
32 554.440979 7.658243 838.222046 150.204178 23.759130 109.605339 1005.027161
33 554.440979 7.658243 838.222046 150.204178 23.759130 109.605339 1005.027161
[L_mouthFront]
31 551.629089 934.514771 339.150421 0.000081 2.804060 79.119301 1136.941284
32 551.629089 934.514771 339.150421 0.000081 2.804060 79.119301 1136.941284
33 551.629089 934.514771 339.150421 0.000081 2.804060 79.119301 1136.941284
[mouthGun]
31 55.332661 1627.420898 0.000000 0.000023 0.000009 -11.038128 1628.361328
32 55.332661 1627.420898 0.000000 0.000023 0.000009 -11.038128 1628.361328
33 55.332661 1627.420898 0.000000 0.000023 0.000009 -11.038128 1628.361328
[R_Mouth01]
31 554.442383 7.659197 -838.223938 29.795891 -23.759109 109.605331 1005.029541
32 554.442383 7.659197 -838.223938 29.795891 -23.759109 109.605331 1005.029541
33 554.442383 7.659197 -838.223938 29.795891 -23.759109 109.605331 1005.029541
[R_mouthFront]
31 551.629089 934.514282 -339.151367 0.000029 -2.803930 79.119133 1136.941162
32 551.629089 934.514282 -339.151367 0.000029 -2.803930 79.119133 1136.941162
33 551.629089 934.514282 -339.151367 0.000029 -2.803930 79.119133 1136.941162
[TopMouth]
31 461.269867 -56.106091 -0.008583 -0.000059 -0.000268 92.025169 464.669525
32 461.269867 -56.106091 -0.008583 -0.000059 -0.000268 92.025169 464.669525
33 461.269867 -56.106091 -0.008583 -0.000059 -0.000268 92.025169 464.669525
[weapon_bone]
31 -987.239868 1448.372803 0.001431 0.000000 89.965736 -31.038221 1752.833740
32 -987.239868 1448.372803 0.001431 0.000000 89.965736 -31.038221 1752.833740
33 -987.239868 1448.372803 0.001431 0.000000 89.965736 -31.038221 1752.833740
